<svg width="218" height="218" viewBox="0 0 218 218" fill="none" xmlns="http://www.w3.org/2000/svg">
<path d="M109 0C48.6867 0 0 48.6867 0 109C0 169.313 48.6867 218 109 218C169.313 218 218 169.313 218 109C218 48.6867 168.95 0 109 0ZM94.4667 44.3267C94.4667 43.2367 94.83 42.51 95.1934 41.42C95.5567 40.6933 95.92 39.6033 96.6467 38.8767C97.01 38.15 97.7367 37.4233 98.4634 36.6967C99.19 35.97 99.9167 35.2433 100.643 34.88C101.37 34.5167 102.46 33.79 103.187 33.4267C103.913 33.0633 105.003 32.7 106.093 32.7C110.817 31.61 115.903 33.4267 119.173 36.6967C119.9 37.4233 120.627 38.15 120.99 38.8767C121.353 39.6033 122.08 40.6933 122.443 41.42C122.807 42.1467 123.17 43.2367 123.17 44.3267C123.17 45.4167 123.533 46.1433 123.533 47.2333C123.533 50.8667 122.08 54.8633 119.173 57.4067C116.267 59.95 112.633 61.7667 109 61.7667C107.91 61.7667 107.183 61.7667 106.093 61.4033C105.003 61.4033 104.277 61.04 103.187 60.6767C102.46 60.3133 101.37 59.95 100.643 59.2233C99.9167 58.86 99.19 58.1333 98.4634 57.4067C97.7367 56.68 97.01 55.9533 96.6467 55.2267C96.2834 54.5 95.5567 53.7733 95.1934 52.6833C94.83 51.9567 94.4667 50.8667 94.4667 49.7767C94.1033 48.6867 94.1033 47.96 94.1033 46.87C94.4666 46.1433 94.4667 45.0533 94.4667 44.3267ZM123.533 170.767C123.533 178.76 116.993 185.3 109 185.3C101.007 185.3 94.4667 178.76 94.4667 170.767V90.1067C94.4667 82.1133 101.007 75.5733 109 75.5733C116.993 75.5733 123.533 82.1133 123.533 90.1067V170.767Z" fill="#060606"/>
</svg>
