<svg width="144" height="140" viewBox="0 0 144 140" fill="none" xmlns="http://www.w3.org/2000/svg">
<path d="M136.94 110.856C136.707 123.199 130.652 131.351 119.706 136.474C109.925 141.132 99.9103 139.968 89.896 137.173C57.5241 128.09 34.0021 108.061 15.8366 80.5803C10.0143 71.4975 3.95915 62.4148 1.63024 51.7018C0.931565 48.4413 0.465782 44.9479 0 41.4546C0.232891 29.3442 5.1236 19.3299 14.2064 11.4116C17.2339 8.84982 20.7273 8.38404 24.6865 8.15114C31.4403 7.91825 35.6323 10.7129 37.7284 17.2339C40.2902 25.1522 43.7835 32.8376 46.3453 40.7559C47.044 42.619 46.8111 45.1808 45.8796 46.8111C43.5506 50.5373 40.756 54.0307 37.7284 57.2912C34.4679 60.7846 34.235 61.7161 36.5639 65.9082C46.8111 84.0737 61.0175 98.0471 80.3474 106.431C85.0053 108.527 86.4026 108.294 89.6631 104.568C92.9236 100.842 96.184 96.8827 99.4445 93.1564C101.308 90.8275 103.637 89.896 106.198 91.2933C115.747 96.184 125.295 101.075 134.844 105.965C136.94 106.897 136.94 108.76 136.94 110.856Z" fill="#535353"/>
<path d="M102.938 78.4844C99.6775 78.4844 96.8828 75.9226 96.8828 72.6621C96.1841 57.757 84.0737 45.8796 68.9358 45.8796C68.47 45.8796 68.2371 45.8796 67.7714 45.8796C64.5109 46.1125 61.4833 43.5507 61.2504 40.0573C61.0175 36.7968 63.5793 33.7693 67.0727 33.5364C67.7714 33.5364 68.2371 33.5364 68.9358 33.5364C90.5947 33.5364 108.062 50.3045 108.993 71.9634C109.226 75.4568 106.431 78.2515 103.171 78.2515C102.938 78.4844 102.938 78.4844 102.938 78.4844Z" fill="#535353"/>
<path d="M136.94 77.087C133.679 77.087 130.885 74.5252 130.885 71.2647C129.254 37.9613 102.239 12.1103 68.9356 12.1103C68.004 12.1103 67.0724 12.1103 66.1409 12.1103C62.8804 12.3432 59.8528 9.54854 59.8528 6.28806C59.6199 2.79469 62.4146 0 65.6751 0C66.8396 0 67.7711 0 68.9356 0C108.76 0 141.365 31.2074 142.995 71.0318C143.228 74.5252 140.433 77.3199 137.173 77.3199C136.94 77.087 136.94 77.087 136.94 77.087Z" fill="#535353"/>
</svg>
