<svg width="190" height="217" viewBox="0 0 190 217" fill="none" xmlns="http://www.w3.org/2000/svg">
<path d="M156.602 0H33.3984C14.8438 0 0 14.4667 0 32.55V145.752C0 154.432 3.33981 162.75 9.6484 168.898L49.3554 207.597C55.664 213.745 64.1992 217 73.1055 217H156.602C175.156 217 190 202.533 190 184.45V32.55C190 14.4667 175.156 0 156.602 0ZM67.1679 198.555C67.1679 201.448 63.8281 202.895 61.6015 200.725L16.3281 156.602C14.4726 154.793 15.5859 151.177 18.5547 151.177H59.7461C63.8281 151.177 66.7969 154.432 66.7969 158.048V198.555H67.1679ZM146.953 143.582H95C90.1758 143.582 86.0937 139.603 86.0937 134.902C86.0937 130.2 90.1758 126.222 95 126.222H146.953C151.777 126.222 155.859 130.2 155.859 134.902C155.859 139.603 151.777 143.582 146.953 143.582ZM146.953 101.628H43.418C38.5937 101.628 34.5117 97.65 34.5117 92.9483C34.5117 88.2467 38.5937 84.2683 43.418 84.2683H146.953C151.777 84.2683 155.859 88.2467 155.859 92.9483C155.859 97.65 151.777 101.628 146.953 101.628ZM146.953 59.675H43.418C38.5937 59.675 34.5117 55.6967 34.5117 50.995C34.5117 46.2933 38.5937 42.315 43.418 42.315H146.953C151.777 42.315 155.859 46.2933 155.859 50.995C155.859 55.6967 151.777 59.675 146.953 59.675Z" fill="#060606"/>
</svg>
