<svg width="145" height="104" viewBox="0 0 145 104" fill="none" xmlns="http://www.w3.org/2000/svg">
<path d="M141.142 8.22083C141.142 8.09034 141.142 8.09034 141.142 8.22083C137.417 3.26223 131.564 0 124.78 0H20.0872C13.4358 0 7.44954 3.26223 3.8578 8.22083C3.8578 8.22083 3.8578 8.35132 3.72477 8.35132C1.33028 11.4831 0 15.3977 0 19.7039V84.2961C0 95.1267 9.04587 104 20.0872 104H124.913C135.954 104 145 95.1267 145 84.2961V19.7039C145 15.3977 143.67 11.4831 141.142 8.22083C141.275 8.22083 141.275 8.22083 141.142 8.22083ZM124.913 11.744C125.578 11.744 126.243 11.8745 126.908 12.005L77.6881 51.1518C74.7615 53.5006 70.3716 53.5006 67.445 51.1518L18.0917 12.005C18.7569 11.8745 19.422 11.744 20.0872 11.744H124.913V11.744ZM124.913 92.256H20.0872C15.5642 92.256 11.9725 88.6023 11.9725 84.2961V22.1832L59.8624 60.2861C63.5872 63.1568 67.9771 64.5922 72.5 64.5922C77.0229 64.5922 81.5459 63.1568 85.1376 60.2861L133.028 22.1832V84.2961C133.028 88.6023 129.436 92.256 124.913 92.256Z" fill="#1C1C1E"/>
</svg>
