<svg width="139" height="139" viewBox="0 0 139 139" fill="none" xmlns="http://www.w3.org/2000/svg">
<path fill-rule="evenodd" clip-rule="evenodd" d="M60.0695 69.4942V103.502C60.0695 104.056 60.4391 104.426 60.9936 104.426H73.5617C74.1162 104.426 74.4858 104.056 74.4858 103.502V68.9397H83.5422C83.9119 68.9397 84.4664 68.57 84.4664 68.2004L85.3905 57.8502C85.3905 57.2957 85.0208 56.9261 84.4664 56.9261H74.4858V49.5331C74.4858 47.8697 75.9644 46.3911 77.6278 46.3911H84.6512C85.2057 46.3911 85.5753 46.0214 85.5753 45.4669V35.1168C85.5753 34.5623 85.2057 34.1926 84.6512 34.1926H72.8224C65.7991 34.1926 60.2543 39.9222 60.2543 46.7607V56.7413H53.9703C53.4158 56.7413 53.0461 57.1109 53.0461 57.6654V68.0156C53.0461 68.57 53.4158 68.9397 53.9703 68.9397H60.2543V69.4942H60.0695Z" fill="#4E4E53"/>
<path d="M69.3093 0C31.0506 0 0 31.0506 0 69.3093C0 107.568 31.0506 138.619 69.3093 138.619C107.568 138.619 138.619 107.568 138.619 69.3093C138.434 31.0506 107.383 0 69.3093 0ZM129.562 69.3093C129.562 102.578 102.393 129.747 69.1245 129.747C35.856 129.747 8.68676 102.578 8.68676 69.3093C8.68676 36.0408 35.856 8.87159 69.1245 8.87159C102.578 8.87159 129.562 36.0408 129.562 69.3093Z" fill="#4E4E53"/>
</svg>
