<svg width="140" height="139" viewBox="0 0 140 139" fill="none" xmlns="http://www.w3.org/2000/svg">
<path fill-rule="evenodd" clip-rule="evenodd" d="M60.688 69.4942V103.502C60.688 104.056 61.0577 104.426 61.6121 104.426H74.1802C74.7347 104.426 75.1043 104.056 75.1043 103.502V68.9397H84.1608C84.5304 68.9397 85.0849 68.57 85.0849 68.2004L86.009 57.8502C86.009 57.2957 85.6394 56.9261 85.0849 56.9261H75.1043V49.5331C75.1043 47.8697 76.5829 46.3911 78.2464 46.3911H85.2697C85.8242 46.3911 86.1938 46.0214 86.1938 45.4669V35.1168C86.1938 34.5623 85.8242 34.1926 85.2697 34.1926H73.4409C66.4176 34.1926 60.8728 39.9222 60.8728 46.7607V56.7413H54.5888C54.0343 56.7413 53.6647 57.1109 53.6647 57.6654V68.0156C53.6647 68.57 54.0343 68.9397 54.5888 68.9397H60.8728V69.4942H60.688Z" fill="#FD9F4D"/>
<path d="M69.9278 0C31.6691 0 0.61853 31.0506 0.61853 69.3093C0.61853 107.568 31.6691 138.619 69.9278 138.619C108.187 138.619 139.237 107.568 139.237 69.3093C139.052 31.0506 108.002 0 69.9278 0ZM130.181 69.3093C130.181 102.578 103.011 129.747 69.743 129.747C36.4745 129.747 9.30529 102.578 9.30529 69.3093C9.30529 36.0408 36.4745 8.87159 69.743 8.87159C103.196 8.87159 130.181 36.0408 130.181 69.3093Z" fill="#FD9F4D"/>
</svg>
