<svg width="140" height="140" viewBox="0 0 140 140" fill="none" xmlns="http://www.w3.org/2000/svg">
<path d="M93.0299 50.8301C93.0299 53.048 91.1817 54.8962 88.9638 54.8962C86.7459 54.8962 84.8976 53.048 84.8976 50.8301C84.8976 48.6122 86.7459 46.7639 88.9638 46.7639C91.1817 46.7639 93.0299 48.6122 93.0299 50.8301ZM87.8548 69.4974C87.8548 79.1083 80.0922 86.8709 70.4813 86.8709C60.8704 86.8709 53.1078 79.1083 53.1078 69.4974C53.1078 59.8865 60.8704 52.1238 70.4813 52.1238C80.0922 51.939 87.8548 59.8865 87.8548 69.4974ZM81.7556 69.4974C81.7556 63.3982 76.7653 58.4079 70.6661 58.4079C64.5669 58.4079 59.5766 63.3982 59.5766 69.4974C59.5766 75.5966 64.5669 80.5869 70.6661 80.5869C76.5805 80.5869 81.7556 75.5966 81.7556 69.4974ZM105.783 55.4507C105.783 43.6219 96.3568 34.1958 84.528 34.1958H55.5105C43.6817 34.1958 34.2556 43.6219 34.2556 55.4507V84.4682C34.2556 96.297 43.6817 105.723 55.5105 105.723H84.528C96.3568 105.723 105.783 96.297 105.783 84.4682V55.4507ZM98.7595 84.0985C98.7595 92.2308 92.2906 98.6997 84.1583 98.6997H55.8801C47.7478 98.6997 41.2789 92.2308 41.2789 84.0985V55.8203C41.2789 47.688 47.7478 41.2192 55.8801 41.2192H84.1583C92.2906 41.2192 98.7595 47.688 98.7595 55.8203V84.0985Z" fill="#FD9F4D"/>
<path d="M69.9278 0.742798C31.6691 0.742798 0.61853 31.7934 0.61853 70.0521C0.61853 108.311 31.6691 139.361 69.9278 139.361C108.187 139.361 139.237 108.311 139.237 70.0521C139.237 31.7934 108.187 0.742798 69.9278 0.742798ZM69.9278 130.305C36.6594 130.305 9.49015 103.136 9.49015 69.8673C9.49015 36.5988 36.6594 9.42956 69.9278 9.42956C103.196 9.42956 130.366 36.5988 130.366 69.8673C130.366 103.136 103.381 130.305 69.9278 130.305Z" fill="#FD9F4D"/>
</svg>
