<svg width="139" height="140" viewBox="0 0 139 140" fill="none" xmlns="http://www.w3.org/2000/svg">
<path d="M92.4113 50.8301C92.4113 53.048 90.5631 54.8962 88.3452 54.8962C86.1273 54.8962 84.2791 53.048 84.2791 50.8301C84.2791 48.6122 86.1273 46.7639 88.3452 46.7639C90.5631 46.7639 92.4113 48.6122 92.4113 50.8301ZM87.2363 69.4974C87.2363 79.1083 79.4736 86.8709 69.8628 86.8709C60.2519 86.8709 52.4892 79.1083 52.4892 69.4974C52.4892 59.8865 60.2519 52.1238 69.8628 52.1238C79.4736 51.939 87.2363 59.8865 87.2363 69.4974ZM81.1371 69.4974C81.1371 63.3982 76.1468 58.4079 70.0476 58.4079C63.9484 58.4079 58.9581 63.3982 58.9581 69.4974C58.9581 75.5966 63.9484 80.5869 70.0476 80.5869C75.962 80.5869 81.1371 75.5966 81.1371 69.4974ZM105.164 55.4507C105.164 43.6219 95.7382 34.1958 83.9095 34.1958H54.8919C43.0631 34.1958 33.6371 43.6219 33.6371 55.4507V84.4682C33.6371 96.297 43.0631 105.723 54.8919 105.723H83.9095C95.7382 105.723 105.164 96.297 105.164 84.4682V55.4507ZM98.1409 84.0985C98.1409 92.2308 91.6721 98.6997 83.5398 98.6997H55.2616C47.1293 98.6997 40.6604 92.2308 40.6604 84.0985V55.8203C40.6604 47.688 47.1293 41.2192 55.2616 41.2192H83.5398C91.6721 41.2192 98.1409 47.688 98.1409 55.8203V84.0985Z" fill="#4E4E53"/>
<path d="M69.3093 0.742798C31.0506 0.742798 0 31.7934 0 70.0521C0 108.311 31.0506 139.361 69.3093 139.361C107.568 139.361 138.619 108.311 138.619 70.0521C138.619 31.7934 107.568 0.742798 69.3093 0.742798ZM69.3093 130.305C36.0408 130.305 8.87162 103.136 8.87162 69.8673C8.87162 36.5988 36.0408 9.42956 69.3093 9.42956C102.578 9.42956 129.747 36.5988 129.747 69.8673C129.747 103.136 102.763 130.305 69.3093 130.305Z" fill="#4E4E53"/>
</svg>
