<svg width="114" height="139" viewBox="0 0 114 139" fill="none" xmlns="http://www.w3.org/2000/svg">
<path d="M56.8406 83.6119C41.996 83.6119 29.9427 71.5586 29.9427 56.714C29.9427 41.8694 41.996 29.8161 56.8406 29.8161C71.6852 29.8161 83.7385 41.8694 83.7385 56.714C83.7385 71.5586 71.5583 83.6119 56.8406 83.6119ZM56.8406 41.3619C48.3399 41.3619 41.3617 48.3401 41.3617 56.8409C41.3617 65.3416 48.213 72.1929 56.8406 72.1929C65.3414 72.1929 72.3196 65.2147 72.3196 56.714C72.3196 48.2132 65.3414 41.3619 56.8406 41.3619Z" fill="#1C1C1E"/>
<path d="M56.8408 138.296C55.9527 138.296 54.9377 138.042 54.1764 137.661C51.8926 136.393 0 108.099 0 56.8408C0 25.5022 25.5022 0 56.8408 0C88.1794 0 113.682 25.5022 113.682 56.8408C113.682 108.099 61.789 136.519 59.6321 137.661C58.6171 138.042 57.7289 138.296 56.8408 138.296ZM56.8408 11.4189C31.7192 11.4189 11.4189 31.7192 11.4189 56.8408C11.4189 95.0307 46.6907 119.645 56.8408 125.989C66.9909 119.645 102.263 95.0307 102.263 56.8408C102.136 31.7192 81.8355 11.4189 56.8408 11.4189Z" fill="#1C1C1E"/>
</svg>
