<svg width="228" height="219" viewBox="0 0 228 219" fill="none" xmlns="http://www.w3.org/2000/svg">
<path d="M18.554 142.129C35.3239 143.963 45.6714 162.294 38.892 178.058C35.3239 186.491 37.8216 196.756 44.9577 202.256C52.8075 208.488 61.7277 213.621 71.0047 217.654C79.2113 220.953 88.845 218.02 93.8404 210.688C103.831 196.756 124.169 196.756 134.16 210.688C139.512 218.02 148.789 220.953 156.995 217.654C166.272 213.621 175.192 208.488 183.042 202.256C190.178 196.39 193.033 186.491 189.108 178.058C182.329 162.294 192.676 143.963 209.446 142.129C218.366 141.03 225.502 133.697 226.93 124.532C227.643 119.399 228 114.633 228 109.5C228 104.367 227.643 99.2346 226.93 94.4685C225.859 85.3029 218.723 77.9704 209.446 76.8706C192.676 75.0375 182.329 56.7063 189.108 40.9415C192.676 32.5092 190.178 22.2438 183.042 16.7444C175.192 10.5119 166.272 5.37914 156.995 1.34629C148.789 -1.95331 139.155 0.97967 134.16 8.31212C124.169 22.2438 103.831 22.2438 93.8404 8.31212C88.4882 0.97967 79.2113 -1.95331 71.0047 1.34629C61.7277 5.37914 52.8075 10.5119 44.9577 16.7444C37.8216 22.6104 34.9671 32.5092 38.892 40.9415C45.6714 56.7063 35.3239 75.0375 18.554 76.8706C9.63379 77.9704 2.49764 85.3029 1.07041 94.4685C0.356791 99.6012 0 104.367 0 109.5C0 114.633 0.356791 119.765 1.07041 124.532C2.49764 133.697 9.63379 141.03 18.554 142.129ZM114.178 65.5053C137.728 65.5053 156.638 84.9363 156.638 109.133C156.638 133.33 137.728 152.761 114.178 152.761C90.6291 152.761 71.7183 133.33 71.7183 109.133C71.7183 84.9363 90.9859 65.5053 114.178 65.5053Z" fill="#4E4E53"/>
</svg>
