<svg width="139" height="140" viewBox="0 0 139 140" fill="none" xmlns="http://www.w3.org/2000/svg">
<path d="M104.612 47.8171C102.394 48.926 99.8062 49.4805 97.4035 49.8501C98.5124 49.6653 100.176 47.6322 100.915 46.7081C102.024 45.4143 102.763 43.9357 103.318 42.2723C103.318 42.0875 103.503 41.9027 103.318 41.9027C103.133 41.9027 103.133 41.9027 102.948 41.9027C100.176 43.3813 97.4035 44.4902 94.4463 45.2295C94.2615 45.2295 94.0766 45.2295 93.8918 45.0447C93.707 44.675 93.3373 44.4902 93.1525 44.3054C91.8587 43.1964 90.565 42.4571 89.0864 41.7178C87.0533 40.9785 84.8354 40.6089 82.8023 40.6089C80.7693 40.7937 78.5513 41.3482 76.7031 42.2723C74.8549 43.1964 73.1914 44.675 71.8976 46.1536C70.6039 47.8171 69.4949 49.8501 68.9405 51.8832C68.386 53.9163 68.5708 55.9493 68.7556 57.9824C68.7556 58.3521 68.7556 58.3521 68.386 58.3521C56.5572 56.6886 46.9463 52.4377 38.9989 43.3813C38.6292 43.0116 38.4444 43.0116 38.2595 43.3813C34.7479 48.5564 36.4113 56.8735 40.8471 60.9396C41.4016 61.4941 41.956 62.0486 42.6953 62.603C42.5105 62.603 39.5533 62.4182 36.9658 60.9396C36.5961 60.7548 36.4113 60.9396 36.4113 61.3093C36.4113 61.8637 36.4113 62.4182 36.5961 62.9727C37.3354 68.1478 40.8471 73.138 45.8374 74.9863C46.3918 75.1711 47.1311 75.5408 47.6856 75.5408C46.5767 75.7256 45.4677 75.9104 42.1409 75.7256C41.7712 75.7256 41.5864 75.9104 41.7712 76.2801C44.1739 82.9338 49.5338 84.9668 53.4152 86.0758C53.9696 86.0758 54.5241 86.0758 55.0786 86.2606C55.0786 86.2606 55.0786 86.2606 54.8938 86.4454C53.6 88.4785 48.9794 89.9571 46.9463 90.6964C43.065 91.9902 38.814 92.7295 34.7479 92.175C34.0086 91.9902 34.0086 92.175 33.8238 92.175C33.6389 92.3598 33.8237 92.3598 34.0086 92.5446C34.7479 93.0991 35.672 93.6536 36.5961 94.0232C39.1837 95.317 41.956 96.426 44.7284 97.3501C59.3296 101.416 75.5941 98.459 86.6836 87.5544C95.1856 79.0524 98.3276 67.2237 98.3276 55.5797C98.3276 55.21 98.8821 54.8404 99.2517 54.6556C101.47 52.9921 103.503 50.9591 105.166 48.7412C105.536 48.1867 105.721 47.8171 105.721 47.6322C104.981 47.6322 104.796 47.8171 104.612 47.8171Z" fill="#4E4E53"/>
<path d="M69.3093 0.871399C31.0506 0.871399 0 31.922 0 70.1807C0 108.439 31.0506 139.49 69.3093 139.49C107.568 139.49 138.619 108.439 138.619 70.1807C138.434 31.922 107.383 0.871399 69.3093 0.871399ZM69.3093 130.618C36.0408 130.618 8.8716 103.449 8.8716 70.1807C8.8716 36.9122 36.0408 9.74299 69.3093 9.74299C102.578 9.74299 129.747 36.9122 129.747 70.1807C129.562 103.449 102.578 130.618 69.3093 130.618Z" fill="#4E4E53"/>
</svg>
