<svg width="140" height="140" viewBox="0 0 140 140" fill="none" xmlns="http://www.w3.org/2000/svg">
<path d="M105.23 47.8171C103.012 48.926 100.425 49.4805 98.022 49.8501C99.131 49.6653 100.794 47.6322 101.534 46.7081C102.643 45.4143 103.382 43.9357 103.936 42.2723C103.936 42.0875 104.121 41.9027 103.936 41.9027C103.752 41.9027 103.752 41.9027 103.567 41.9027C100.794 43.3813 98.022 44.4902 95.0648 45.2295C94.88 45.2295 94.6952 45.2295 94.5103 45.0447C94.3255 44.675 93.9559 44.4902 93.771 44.3054C92.4773 43.1964 91.1835 42.4571 89.7049 41.7178C87.6718 40.9785 85.4539 40.6089 83.4209 40.6089C81.3878 40.7937 79.1699 41.3482 77.3216 42.2723C75.4734 43.1964 73.8099 44.675 72.5162 46.1536C71.2224 47.8171 70.1135 49.8501 69.559 51.8832C69.0045 53.9163 69.1893 55.9493 69.3742 57.9824C69.3742 58.3521 69.3742 58.3521 69.0045 58.3521C57.1757 56.6886 47.5649 52.4377 39.6174 43.3813C39.2477 43.0116 39.0629 43.0116 38.8781 43.3813C35.3664 48.5564 37.0298 56.8735 41.4656 60.9396C42.0201 61.4941 42.5746 62.0486 43.3139 62.603C43.1291 62.603 40.1718 62.4182 37.5843 60.9396C37.2146 60.7548 37.0298 60.9396 37.0298 61.3093C37.0298 61.8637 37.0298 62.4182 37.2147 62.9727C37.954 68.1478 41.4656 73.138 46.4559 74.9863C47.0104 75.1711 47.7497 75.5408 48.3041 75.5408C47.1952 75.7256 46.0862 75.9104 42.7594 75.7256C42.3897 75.7256 42.2049 75.9104 42.3898 76.2801C44.7925 82.9338 50.1524 84.9668 54.0337 86.0758C54.5882 86.0758 55.1427 86.0758 55.6971 86.2606C55.6971 86.2606 55.6971 86.2606 55.5123 86.4454C54.2185 88.4785 49.5979 89.9571 47.5648 90.6964C43.6835 91.9902 39.4326 92.7295 35.3664 92.175C34.6271 91.9902 34.6271 92.175 34.4423 92.175C34.2575 92.3598 34.4423 92.3598 34.6271 92.5446C35.3664 93.0991 36.2905 93.6536 37.2147 94.0232C39.8022 95.317 42.5746 96.426 45.3469 97.3501C59.9481 101.416 76.2127 98.459 87.3022 87.5544C95.8041 79.0524 98.9461 67.2237 98.9461 55.5797C98.9461 55.21 99.5006 54.8404 99.8703 54.6556C102.088 52.9921 104.121 50.9591 105.785 48.7412C106.154 48.1867 106.339 47.8171 106.339 47.6322C105.6 47.6322 105.415 47.8171 105.23 47.8171Z" fill="#FD9F4D"/>
<path d="M69.9278 0.871399C31.6691 0.871399 0.61853 31.922 0.61853 70.1807C0.61853 108.439 31.6691 139.49 69.9278 139.49C108.187 139.49 139.237 108.439 139.237 70.1807C139.052 31.922 108.002 0.871399 69.9278 0.871399ZM69.9278 130.618C36.6594 130.618 9.49013 103.449 9.49013 70.1807C9.49013 36.9122 36.6594 9.74299 69.9278 9.74299C103.196 9.74299 130.366 36.9122 130.366 70.1807C130.181 103.449 103.196 130.618 69.9278 130.618Z" fill="#FD9F4D"/>
</svg>
